<svg width="21" height="21" viewBox="0 0 21 21" fill="none" xmlns="http://www.w3.org/2000/svg">
<path d="M13.8075 13.8599C13.8075 13.8599 16.31 11.3749 17.1588 10.4999C19.845 7.87489 18.5063 2.46739 18.5063 2.46739C18.5063 2.46739 13.125 1.12864 10.5 3.81489C8.4525 5.80989 7.1225 7.19239 7.1225 7.19239C7.1225 7.19239 3.7625 6.49239 1.75 8.50489L12.4688 19.2499C14.4812 17.2111 13.8075 13.8599 13.8075 13.8599ZM12.495 5.98489C12.6575 5.82218 12.8505 5.6931 13.063 5.60503C13.2754 5.51696 13.5031 5.47163 13.7331 5.47163C13.9631 5.47163 14.1908 5.51696 14.4033 5.60503C14.6157 5.6931 14.8087 5.82218 14.9713 5.98489C15.2158 6.2297 15.3823 6.54153 15.4496 6.88094C15.517 7.22036 15.4822 7.57212 15.3497 7.89178C15.2172 8.21144 14.9929 8.48463 14.7052 8.67684C14.4174 8.86905 14.0792 8.97163 13.7331 8.97163C13.3871 8.97163 13.0488 8.86905 12.7611 8.67684C12.4733 8.48463 12.249 8.21144 12.1165 7.89178C11.984 7.57212 11.9492 7.22036 12.0166 6.88094C12.084 6.54153 12.2505 6.2297 12.495 5.98489ZM2.625 18.3749C4.24469 18.3287 5.79526 17.7084 7 16.6249L4.375 13.9999C2.625 14.8749 2.625 18.3749 2.625 18.3749Z" fill="#F5F5F5"/>
</svg>
