<?xml version="1.0" encoding="UTF-8" standalone="no"?>
<!DOCTYPE svg PUBLIC "-//W3C//DTD SVG 1.1//EN" "http://www.w3.org/Graphics/SVG/1.1/DTD/svg11.dtd">
<!-- Created with Vectornator (http://vectornator.io/) -->
<svg stroke-miterlimit="10" style="fill-rule:nonzero;clip-rule:evenodd;stroke-linecap:round;stroke-linejoin:round;" version="1.1" viewBox="0 0 1024 1024" preserveAspectRatio="xMinYMin meet"  xml:space="preserve" xmlns="http://www.w3.org/2000/svg" xmlns:xlink="http://www.w3.org/1999/xlink">
<defs>
<linearGradient gradientTransform="matrix(24.0819 -893.862 967.282 24.5239 508.601 921.895)" gradientUnits="userSpaceOnUse" id="LinearGradient" x1="0" x2="1" y1="0" y2="0">
<stop offset="0" stop-color="#142954"/>
<stop offset="1" stop-color="#150c37"/>
</linearGradient>
<linearGradient gradientTransform="matrix(746.171 0 0 746.171 114 515.668)" gradientUnits="userSpaceOnUse" id="LinearGradient_2" x1="0" x2="1" y1="0" y2="0">
<stop offset="0" stop-color="#bbd3f3"/>
<stop offset="1" stop-color="#9395fd"/>
</linearGradient>
<linearGradient gradientTransform="matrix(746.171 0 0 746.171 114 515.668)" gradientUnits="userSpaceOnUse" id="LinearGradient_3" x1="0" x2="1" y1="0" y2="0">
<stop offset="0" stop-color="#bbd3f3"/>
<stop offset="1" stop-color="#9395fd"/>
</linearGradient>
<filter color-interpolation-filters="sRGB" filterUnits="userSpaceOnUse" height="362.965" id="Filter" width="362.965" x="577.739" y="25.8706">
<feGaussianBlur in="SourceGraphic" result="Blur" stdDeviation="34.593"/>
</filter>
</defs>
<clipPath id="ArtboardFrame">
<rect height="1024" width="1024" x="0" y="0"/>
</clipPath>
<g clip-path="url(#ArtboardFrame)" id="Layer-3" visibility="hidden">
<path d="M-1.13687e-13 512C-1.13687e-13 229.23 229.23 4.91538e-14 512 4.91538e-14C794.77 4.91538e-14 1024 229.23 1024 512C1024 794.77 794.77 1024 512 1024C229.23 1024-1.13687e-13 794.77-1.13687e-13 512Z" fill="#363741" fill-rule="nonzero" opacity="1" stroke="none"/>
</g>
<g id="Layer-1">
<path class="svg-internal" d="M304.01 106.254C292.995 108.423 282.652 111.541 272.98 115.608C263.308 119.676 254.039 124.692 245.174 130.657C236.308 136.622 228.114 143.401 220.591 150.993C213.069 158.585 205.815 167.94 198.83 179.057C191.844 190.174 186.203 202.375 181.904 215.661C177.605 228.948 175.053 238.438 174.247 244.132C173.441 249.826 173.038 257.282 173.038 266.501C173.038 275.72 173.71 284.533 175.053 292.938C176.396 301.344 178.008 308.529 179.889 314.494C181.77 320.46 175.187 326.154 160.142 331.577C145.097 337 135.157 341.88 130.321 346.219C125.485 350.557 121.724 355.438 119.037 360.861C116.351 366.283 114.739 372.249 114.201 378.756C113.664 385.264 114.201 391.771 115.813 398.279C117.425 404.786 119.306 409.938 121.455 413.734C123.605 417.53 130.724 433.799 142.814 462.541C154.904 491.282 157.322 515.821 150.068 536.157C142.814 556.493 137.844 569.101 135.157 573.982C132.47 578.863 130.052 585.506 127.903 593.911C125.754 602.317 124.545 610.316 124.276 617.908C124.008 625.5 124.142 631.058 124.679 634.583C125.217 638.108 126.426 642.718 128.306 648.412C130.187 654.106 132.336 658.986 134.754 663.054C137.172 667.121 140.262 671.188 144.023 675.255C147.784 679.322 151.545 682.712 155.307 685.423C159.068 688.135 176.531 695.862 207.695 708.606C238.86 721.35 257.801 733.145 264.517 743.991C271.234 754.837 276.338 763.92 279.831 771.241C283.323 778.562 288.025 786.29 293.935 794.424C299.846 802.559 305.085 808.931 309.652 813.54C314.219 818.15 319.727 822.895 326.175 827.775C332.623 832.656 338.533 836.587 343.906 839.57C349.28 842.553 355.593 845.4 362.847 848.111C370.101 850.823 379.235 852.856 390.25 854.212C401.265 855.568 412.012 855.297 422.49 853.399C432.967 851.501 457.953 842.146 497.446 825.335C536.939 808.524 558.432 799.712 561.925 798.898C565.417 798.085 567.835 797.814 569.178 798.085C570.522 798.356 572.402 799.305 574.82 800.932C577.238 802.559 579.119 804.592 580.462 807.032C581.805 809.473 589.597 826.555 603.836 858.279C618.075 890.003 627.075 908.035 630.836 912.373C634.597 916.711 639.433 920.372 645.344 923.354C651.254 926.337 656.224 927.964 660.254 928.235C664.284 928.506 667.777 928.235 670.732 927.422C673.687 926.608 702.568 912.644 757.375 885.529C812.182 858.415 841.063 844.451 844.018 843.637C846.974 842.824 849.929 840.248 852.884 835.91C855.839 831.571 857.854 826.013 858.929 819.234C860.004 812.455 859.869 805.677 858.526 798.898C857.183 792.119 854.63 785.476 850.869 778.969C847.108 772.461 842.406 766.767 836.764 761.887C831.123 757.006 824.272 753.074 816.212 750.092C808.152 747.109 799.958 745.618 791.629 745.618C783.301 745.618 775.375 746.973 767.853 749.685C760.33 752.396 755.495 751.176 753.345 746.024C751.196 740.873 751.062 737.754 752.942 736.67C754.823 735.585 756.838 733.687 758.987 730.976C761.136 728.264 776.45 702.505 804.928 653.699C833.406 604.893 849.66 577.642 853.69 571.948C857.72 566.254 859.869 560.831 860.138 555.679C860.407 550.528 859.063 544.562 856.108 537.784C853.153 531.005 849.794 525.582 846.033 521.515C842.272 517.448 837.57 513.787 831.929 510.534C826.287 507.28 821.048 504.975 816.212 503.619C811.376 502.264 806.54 501.45 801.704 501.179C796.868 500.908 791.898 501.179 786.794 501.992C781.689 502.806 776.316 504.433 770.674 506.873C765.032 509.313 759.793 512.432 754.957 516.228C750.121 520.024 745.554 524.904 741.256 530.87C736.957 536.835 723.255 532.361 700.15 517.448C677.046 502.535 665.359 494.807 665.09 494.265C664.822 493.722 665.628 491.418 667.508 487.35C669.389 483.283 674.762 472.437 683.628 454.813C692.494 437.188 697.598 425.936 698.941 421.055C700.285 416.174 701.091 410.074 701.359 402.753C701.628 395.432 700.956 388.518 699.344 382.01C697.733 375.502 695.046 368.995 691.285 362.487C687.523 355.98 682.419 349.879 675.971 344.185C669.523 338.491 663.21 334.288 657.03 331.577C650.851 328.865 645.612 327.103 641.314 326.289C637.015 325.476 632.448 325.069 627.612 325.069C622.776 325.069 617.537 325.747 611.895 327.103C606.254 328.459 600.074 331.034 593.358 334.83C586.641 338.627 582.074 341.609 579.656 343.778C577.238 345.947 574.82 348.795 572.402 352.319C569.984 355.844 567.969 357.742 566.357 358.014C564.745 358.285 562.059 359.505 558.298 361.674C554.536 363.843 551.044 367.097 547.82 371.435C544.596 375.774 539.357 387.433 532.103 406.413C528.476 415.903 524.849 425.393 521.222 434.884C516.387 432.85 511.551 430.816 506.715 428.783C497.043 424.716 491.267 419.022 489.386 411.701C487.506 404.38 482.401 395.567 474.072 385.264C465.744 374.96 463.729 366.826 468.028 360.861C472.326 354.895 476.087 348.795 479.311 342.558C482.535 336.322 485.625 328.865 488.58 320.189C491.535 311.512 493.685 303.513 495.028 296.192C496.371 288.871 497.177 280.601 497.446 271.382C497.715 262.163 497.446 254.164 496.64 247.386C495.834 240.607 494.222 232.744 491.804 223.796C489.386 214.848 486.7 206.985 483.744 200.206C480.789 193.427 475.953 185.022 469.237 174.989C462.52 164.957 455.401 156.28 447.878 148.959C440.356 141.638 433.236 135.673 426.52 131.064C419.803 126.454 413.49 122.658 407.579 119.676C401.668 116.693 394.012 113.71 384.608 110.728C375.205 107.745 367.146 105.711 360.429 104.627C353.712 103.542 345.384 103 335.444 103C325.503 103 315.025 104.085 304.01 106.254ZM335.444 118.455C343.772 118.455 351.429 118.998 358.414 120.082C365.399 121.167 372.653 122.929 380.176 125.37C387.698 127.81 394.683 130.793 401.131 134.317C404.355 136.08 407.579 137.842 410.803 139.605C407.982 140.283 405.161 140.961 402.34 141.638C396.698 142.994 390.788 144.892 384.608 147.332C378.429 149.773 369.429 154.925 357.608 162.788C345.787 170.651 334.235 180.006 322.951 190.852C311.667 201.697 301.189 213.899 291.518 227.456C281.846 241.014 276.741 249.148 276.204 251.86C275.667 254.571 281.846 268.806 294.741 294.565C307.637 320.324 315.025 333.746 316.906 334.83C318.787 335.915 322.414 336.864 327.787 337.677C333.16 338.491 341.891 338.898 353.981 338.898C366.071 338.898 375.877 338.491 383.4 337.677C390.922 336.864 400.997 335.102 413.624 332.39C426.251 329.679 436.46 326.967 444.251 324.256C452.042 321.544 459.296 318.426 466.013 314.901C469.371 313.139 472.729 311.376 476.087 309.614C474.207 314.359 472.326 319.104 470.446 323.849C466.684 333.339 462.789 341.202 458.759 347.439C454.729 353.675 448.684 360.996 440.624 369.402C432.564 377.807 424.236 384.721 415.639 390.144C407.042 395.567 402.474 399.499 401.937 401.939C401.4 404.38 401.265 406.142 401.534 407.227C401.803 408.311 402.743 409.396 404.355 410.48C405.967 411.565 407.713 411.972 409.594 411.701C411.475 411.429 415.639 409.26 422.087 405.193C428.535 401.126 435.117 396.245 441.833 390.551C445.191 387.704 448.55 384.857 451.908 382.01C455.401 386.213 458.893 390.416 462.386 394.618C469.371 403.024 476.759 422.682 484.55 453.593C492.341 484.503 504.834 517.99 522.028 554.053C539.223 590.115 547.82 608.553 547.82 609.367C547.82 610.18 547.014 610.858 545.402 611.4C543.79 611.942 533.178 614.925 513.566 620.348C493.953 625.771 483.207 629.296 481.326 630.923C479.446 632.55 478.64 634.719 478.908 637.43C479.177 640.142 479.983 641.904 481.326 642.718C482.67 643.531 484.819 643.802 487.774 643.531C490.729 643.26 512.222 637.295 552.253 625.635C592.283 613.976 613.507 607.468 615.925 606.113C618.343 604.757 623.179 604.079 630.433 604.079C637.687 604.079 644.806 605.435 651.792 608.146C658.777 610.858 665.493 615.061 671.941 620.755C678.389 626.449 683.359 632.007 686.852 637.43C690.344 642.853 701.225 666.307 719.494 707.793C737.763 749.278 747.435 770.428 748.509 771.241C749.584 772.055 751.196 772.461 753.345 772.461C755.495 772.461 759.121 770.97 764.226 767.987C769.331 765.005 774.569 762.971 779.943 761.887C785.316 760.802 791.092 760.531 797.271 761.073C803.45 761.615 809.227 763.107 814.6 765.547C819.973 767.987 824.675 771.106 828.705 774.902C832.735 778.698 836.093 783.172 838.779 788.323C841.466 793.475 843.212 798.627 844.018 803.779C844.824 808.931 844.959 813.269 844.421 816.794C843.884 820.319 843.078 823.166 842.003 825.335C840.929 827.504 811.779 842.553 754.554 870.481C697.33 898.409 667.24 912.509 664.284 912.78C661.329 913.051 657.836 912.373 653.806 910.746C649.777 909.119 646.15 906.543 642.926 903.018C639.702 899.494 630.567 880.92 615.522 847.298C600.477 813.676 591.477 795.373 588.522 792.391C585.567 789.408 582.343 787.103 578.85 785.476C575.358 783.849 570.522 783.036 564.342 783.036C558.163 783.036 552.924 784.256 548.626 786.696C544.327 789.137 526.327 797 494.625 810.286C462.923 823.572 442.639 831.707 433.773 834.689C424.908 837.672 415.639 839.299 405.967 839.57C396.295 839.841 389.982 839.706 387.026 839.163C384.071 838.621 379.504 837.401 373.325 835.503C367.146 833.605 360.698 830.893 353.981 827.368C347.265 823.844 341.354 820.183 336.25 816.387C331.145 812.591 324.831 806.626 317.309 798.491C309.786 790.357 301.592 778.291 292.727 762.293C288.294 754.294 283.861 746.296 279.428 738.297C285.204 740.602 290.98 742.906 296.756 745.211C308.309 749.821 315.966 753.21 319.727 755.379C323.488 757.548 327.787 759.311 332.623 760.666C337.459 762.022 343.369 762.836 350.354 763.107C357.339 763.378 364.056 762.7 370.504 761.073C376.952 759.446 383.4 756.735 389.847 752.939C396.295 749.143 402.34 743.991 407.982 737.483C413.624 730.976 417.922 724.062 420.878 716.741C423.833 709.42 425.579 701.828 426.117 693.964C426.654 686.101 426.385 679.594 425.311 674.442C424.236 669.29 422.758 664.545 420.878 660.207C418.997 655.868 416.982 652.072 414.833 648.818C412.684 645.565 409.594 642.175 405.564 638.65C401.534 635.125 399.519 632.685 399.519 631.329C399.519 629.974 398.713 627.398 397.101 623.602C395.489 619.806 393.206 616.281 390.25 613.027C387.295 609.773 374.668 602.588 352.369 591.471C341.22 585.912 330.07 580.354 318.921 574.795C322.951 567.068 326.981 559.34 331.011 551.612C339.07 536.157 343.1 527.073 343.1 524.362C343.1 521.651 342.429 519.753 341.085 518.668C339.742 517.583 338.265 517.041 336.653 517.041C335.041 517.041 333.294 517.854 331.414 519.481C329.533 521.108 324.025 530.463 314.891 547.545C305.757 564.627 301.055 574.389 300.786 576.829C300.518 579.269 300.786 581.167 301.592 582.523C302.398 583.879 307.906 586.861 318.115 591.471C328.324 596.08 341.085 602.452 356.399 610.587C371.713 618.721 380.176 624.28 381.788 627.262C383.4 630.245 384.205 633.363 384.205 636.617C384.205 639.871 382.594 642.989 379.37 645.971C376.146 648.954 374.802 651.801 375.34 654.512C375.877 657.224 377.758 658.851 380.982 659.393C384.205 659.935 387.698 658.715 391.459 655.733C393.34 654.241 395.221 652.75 397.101 651.259C398.445 653.021 399.788 654.784 401.131 656.546C403.818 660.071 406.101 664.409 407.982 669.561C409.863 674.713 410.803 681.22 410.803 689.084C410.803 696.947 409.46 704.268 406.773 711.047C404.086 717.825 400.325 723.79 395.489 728.942C390.653 734.094 386.086 737.89 381.788 740.33C377.489 742.771 373.593 744.533 370.101 745.618C366.608 746.702 361.638 747.38 355.19 747.651C348.742 747.923 344.175 747.787 341.488 747.245C338.802 746.702 334.772 745.075 329.399 742.364C324.025 739.653 297.025 728.536 248.398 709.013C199.77 689.49 173.038 678.238 168.202 675.255C163.366 672.273 159.068 668.748 155.307 664.68C151.545 660.613 148.59 656.546 146.441 652.479C144.291 648.412 142.545 643.531 141.202 637.837C139.859 632.143 139.187 626.584 139.187 621.161C139.187 615.738 139.59 610.722 140.396 606.113C141.202 601.503 142.411 597.843 144.023 595.131C145.635 592.42 157.053 561.78 178.277 503.213C199.501 444.645 213.203 411.701 219.382 404.38C225.561 397.059 229.188 393.127 230.263 392.585C231.338 392.042 232.278 390.822 233.084 388.924C233.89 387.026 234.158 384.044 233.89 379.976C233.621 375.909 230.666 370.757 225.024 364.521C219.382 358.285 214.009 350.828 208.904 342.151C203.8 333.475 199.501 323.713 196.009 312.868C192.516 302.022 190.367 293.616 189.561 287.651C188.755 281.686 188.352 274.636 188.352 266.501C188.352 258.367 189.426 248.741 191.576 237.624C193.725 226.507 196.949 216.068 201.248 206.307C205.546 196.546 208.904 189.767 211.322 185.971C213.74 182.175 216.427 178.379 219.382 174.583C222.337 170.787 227.039 165.77 233.487 159.534C239.935 153.298 246.114 148.146 252.024 144.079C257.935 140.012 264.92 136.08 272.98 132.284C281.04 128.488 288.428 125.641 295.144 123.743C301.861 121.845 308.175 120.489 314.085 119.676C319.996 118.862 327.115 118.455 335.444 118.455ZM426.52 151.4C428.4 151.671 432.564 155.06 439.012 161.568C445.46 168.075 450.296 173.498 453.52 177.836C456.744 182.175 460.505 188.411 464.804 196.546C469.102 204.68 472.192 211.459 474.072 216.882C475.953 222.305 477.699 229.083 479.311 237.218C480.923 245.352 481.864 252.673 482.132 259.181C482.401 265.688 482.132 272.06 481.326 278.296C480.52 284.533 478.237 289.142 474.475 292.125C470.714 295.107 465.878 298.09 459.968 301.073C454.057 304.055 443.848 307.716 429.34 312.054C414.833 316.392 401.668 319.375 389.847 321.002C378.026 322.629 364.459 323.171 349.145 322.629C333.832 322.087 320.533 310.698 309.249 288.464C297.965 266.23 292.324 254.571 292.324 253.486C292.324 252.402 296.219 246.437 304.01 235.591C311.801 224.745 322.279 213.086 335.444 200.613C348.608 188.14 360.429 178.65 370.907 172.142C381.385 165.635 392.803 160.483 405.161 156.687C417.519 152.891 424.639 151.129 426.52 151.4ZM194.8 348.659C199.098 356.251 203.8 363.03 208.904 368.995C214.009 374.96 216.696 379.027 216.964 381.197C217.233 383.366 213.875 388.382 206.889 396.245C199.904 404.108 191.71 420.92 182.307 446.678C177.605 459.558 172.904 472.437 168.202 485.317C163.098 472.844 157.993 460.371 152.889 447.899C142.68 422.953 136.769 409.26 135.157 406.82C133.545 404.38 132.202 401.397 131.127 397.872C130.052 394.347 129.381 390.416 129.112 386.077C128.844 381.739 129.381 377.265 130.724 372.655C132.067 368.046 134.485 363.843 137.978 360.047C141.471 356.251 150.739 351.506 165.784 345.812C180.829 340.118 190.501 341.067 194.8 348.659ZM633.254 341.338C639.702 341.88 645.478 343.236 650.583 345.405C655.687 347.574 660.389 350.421 664.687 353.946C668.986 357.471 672.344 360.861 674.762 364.114C677.18 367.368 679.464 371.571 681.613 376.723C683.762 381.874 685.105 388.246 685.643 395.838C686.18 403.431 685.911 409.396 684.837 413.734C683.762 418.073 682.15 422.682 680.001 427.563C677.852 432.443 672.478 443.56 663.881 460.914C655.284 478.267 648.568 486.266 643.732 484.91C638.896 483.554 633.254 482.741 626.806 482.47C620.358 482.199 613.373 482.47 605.851 483.283C598.328 484.097 591.612 485.317 585.701 486.944C579.79 488.571 574.417 490.74 569.581 493.451C564.745 496.163 561.387 498.468 559.507 500.366C557.626 502.264 552.521 509.178 544.193 521.108C540.029 527.073 535.864 533.039 531.7 539.004C528.208 531.683 524.715 524.362 521.222 517.041C514.237 502.399 508.461 486.13 503.894 468.235C501.61 459.287 499.327 450.339 497.043 441.391C501.207 443.425 505.371 445.458 509.536 447.492C517.864 451.559 523.372 453.457 526.058 453.186C528.745 452.915 530.491 452.373 531.297 451.559C532.103 450.746 532.641 449.39 532.909 447.492C533.178 445.594 537.745 433.799 546.611 412.107C555.477 390.416 561.387 378.485 564.342 376.316C567.298 374.147 570.253 372.927 573.208 372.655C576.164 372.384 579.253 373.74 582.477 376.723C585.701 379.705 588.522 381.061 590.94 380.79C593.358 380.519 594.97 379.841 595.776 378.756C596.582 377.672 596.985 375.909 596.985 373.469C596.985 371.029 595.238 367.91 591.746 364.114C590 362.216 588.253 360.318 586.507 358.42C587.85 357.2 589.194 355.98 590.537 354.76C593.224 352.319 596.447 350.015 600.209 347.845C603.97 345.676 608.806 343.914 614.716 342.558C620.627 341.202 626.806 340.796 633.254 341.338ZM619.955 498.332C628.821 498.332 635.403 498.739 639.702 499.552C644 500.366 661.195 510.398 691.285 529.649C721.375 548.901 737.226 558.527 738.838 558.527C740.45 558.527 742.062 557.849 743.673 556.493C745.285 555.137 747.3 551.883 749.718 546.732C752.136 541.58 755.092 537.241 758.584 533.717C762.077 530.192 766.107 527.073 770.674 524.362C775.241 521.651 779.271 519.753 782.764 518.668C786.256 517.583 790.286 516.905 794.853 516.634C799.421 516.363 804.525 516.905 810.167 518.261C815.809 519.617 820.645 521.515 824.675 523.955C828.705 526.396 832.332 529.378 835.555 532.903C838.779 536.428 841.332 541.038 843.212 546.732C845.093 552.426 829.242 583.336 795.659 639.464C762.077 695.591 744.882 723.655 744.076 723.655C743.27 723.655 742.196 722.435 740.853 719.994C739.509 717.554 738.703 715.114 738.435 712.673C738.166 710.233 737.36 708.2 736.017 706.573C734.673 704.946 729.166 692.88 719.494 670.375C709.822 647.869 702.837 633.499 698.538 627.262C694.24 621.026 688.732 614.925 682.016 608.96C675.299 602.995 669.523 598.792 664.687 596.351C659.851 593.911 655.553 592.149 651.792 591.064C648.03 589.98 642.388 589.166 634.866 588.624C627.343 588.082 620.896 588.353 615.522 589.437C610.149 590.522 605.985 591.878 603.03 593.504C600.074 595.131 593.089 597.572 582.074 600.825C571.059 604.079 565.014 605.57 563.939 605.299C562.865 605.028 560.313 600.148 556.283 590.657C552.253 581.167 549.297 575.066 547.417 572.355C545.536 569.644 543.79 565.983 542.178 561.374C540.566 556.764 545.268 546.867 556.283 531.683C567.298 516.499 575.089 507.822 579.656 505.653C584.223 503.484 589.865 501.721 596.582 500.366C603.298 499.01 611.089 498.332 619.955 498.332Z" fill="url(#LinearGradient_2)" fill-rule="nonzero" opacity="0.993996" stroke="#bbd3f3" stroke-linecap="butt" stroke-linejoin="round" stroke-width="13.034"/>
<path class="svg-internal" d="M304.01 106.254C292.995 108.423 282.652 111.541 272.98 115.608C263.308 119.676 254.039 124.692 245.174 130.657C236.308 136.622 228.114 143.401 220.591 150.993C213.069 158.585 205.815 167.94 198.83 179.057C191.844 190.174 186.203 202.375 181.904 215.661C177.605 228.948 175.053 238.438 174.247 244.132C173.441 249.826 173.038 257.282 173.038 266.501C173.038 275.72 173.71 284.533 175.053 292.938C176.396 301.344 178.008 308.529 179.889 314.494C181.77 320.46 175.187 326.154 160.142 331.577C145.097 337 135.157 341.88 130.321 346.219C125.485 350.557 121.724 355.438 119.037 360.861C116.351 366.283 114.739 372.249 114.201 378.756C113.664 385.264 114.201 391.771 115.813 398.279C117.425 404.786 119.306 409.938 121.455 413.734C123.605 417.53 130.724 433.799 142.814 462.541C154.904 491.282 157.322 515.821 150.068 536.157C142.814 556.493 137.844 569.101 135.157 573.982C132.47 578.863 130.052 585.506 127.903 593.911C125.754 602.317 124.545 610.316 124.276 617.908C124.008 625.5 124.142 631.058 124.679 634.583C125.217 638.108 126.426 642.718 128.306 648.412C130.187 654.106 132.336 658.986 134.754 663.054C137.172 667.121 140.262 671.188 144.023 675.255C147.784 679.322 151.545 682.712 155.307 685.423C159.068 688.135 176.531 695.862 207.695 708.606C238.86 721.35 257.801 733.145 264.517 743.991C271.234 754.837 276.338 763.92 279.831 771.241C283.323 778.562 288.025 786.29 293.935 794.424C299.846 802.559 305.085 808.931 309.652 813.54C314.219 818.15 319.727 822.895 326.175 827.775C332.623 832.656 338.533 836.587 343.906 839.57C349.28 842.553 355.593 845.4 362.847 848.111C370.101 850.823 379.235 852.856 390.25 854.212C401.265 855.568 412.012 855.297 422.49 853.399C432.967 851.501 457.953 842.146 497.446 825.335C536.939 808.524 558.432 799.712 561.925 798.898C565.417 798.085 567.835 797.814 569.178 798.085C570.522 798.356 572.402 799.305 574.82 800.932C577.238 802.559 579.119 804.592 580.462 807.032C581.805 809.473 589.597 826.555 603.836 858.279C618.075 890.003 627.075 908.035 630.836 912.373C634.597 916.711 639.433 920.372 645.344 923.354C651.254 926.337 656.224 927.964 660.254 928.235C664.284 928.506 667.777 928.235 670.732 927.422C673.687 926.608 702.568 912.644 757.375 885.529C812.182 858.415 841.063 844.451 844.018 843.637C846.974 842.824 849.929 840.248 852.884 835.91C855.839 831.571 857.854 826.013 858.929 819.234C860.004 812.455 859.869 805.677 858.526 798.898C857.183 792.119 854.63 785.476 850.869 778.969C847.108 772.461 842.406 766.767 836.764 761.887C831.123 757.006 824.272 753.074 816.212 750.092C808.152 747.109 799.958 745.618 791.629 745.618C783.301 745.618 775.375 746.973 767.853 749.685C760.33 752.396 755.495 751.176 753.345 746.024C751.196 740.873 751.062 737.754 752.942 736.67C754.823 735.585 756.838 733.687 758.987 730.976C761.136 728.264 776.45 702.505 804.928 653.699C833.406 604.893 849.66 577.642 853.69 571.948C857.72 566.254 859.869 560.831 860.138 555.679C860.407 550.528 859.063 544.562 856.108 537.784C853.153 531.005 849.794 525.582 846.033 521.515C842.272 517.448 837.57 513.787 831.929 510.534C826.287 507.28 821.048 504.975 816.212 503.619C811.376 502.264 806.54 501.45 801.704 501.179C796.868 500.908 791.898 501.179 786.794 501.992C781.689 502.806 776.316 504.433 770.674 506.873C765.032 509.313 759.793 512.432 754.957 516.228C750.121 520.024 745.554 524.904 741.256 530.87C736.957 536.835 723.255 532.361 700.15 517.448C677.046 502.535 665.359 494.807 665.09 494.265C664.822 493.722 665.628 491.418 667.508 487.35C669.389 483.283 674.762 472.437 683.628 454.813C692.494 437.188 697.598 425.936 698.941 421.055C700.285 416.174 701.091 410.074 701.359 402.753C701.628 395.432 700.956 388.518 699.344 382.01C697.733 375.502 695.046 368.995 691.285 362.487C687.523 355.98 682.419 349.879 675.971 344.185C669.523 338.491 663.21 334.288 657.03 331.577C650.851 328.865 645.612 327.103 641.314 326.289C637.015 325.476 632.448 325.069 627.612 325.069C622.776 325.069 617.537 325.747 611.895 327.103C606.254 328.459 600.074 331.034 593.358 334.83C586.641 338.627 582.074 341.609 579.656 343.778C577.238 345.947 574.82 348.795 572.402 352.319C569.984 355.844 567.969 357.742 566.357 358.014C564.745 358.285 562.059 359.505 558.298 361.674C554.536 363.843 551.044 367.097 547.82 371.435C544.596 375.774 539.357 387.433 532.103 406.413C528.476 415.903 524.849 425.393 521.222 434.884C516.387 432.85 511.551 430.816 506.715 428.783C497.043 424.716 491.267 419.022 489.386 411.701C487.506 404.38 482.401 395.567 474.072 385.264C465.744 374.96 463.729 366.826 468.028 360.861C472.326 354.895 476.087 348.795 479.311 342.558C482.535 336.322 485.625 328.865 488.58 320.189C491.535 311.512 493.685 303.513 495.028 296.192C496.371 288.871 497.177 280.601 497.446 271.382C497.715 262.163 497.446 254.164 496.64 247.386C495.834 240.607 494.222 232.744 491.804 223.796C489.386 214.848 486.7 206.985 483.744 200.206C480.789 193.427 475.953 185.022 469.237 174.989C462.52 164.957 455.401 156.28 447.878 148.959C440.356 141.638 433.236 135.673 426.52 131.064C419.803 126.454 413.49 122.658 407.579 119.676C401.668 116.693 394.012 113.71 384.608 110.728C375.205 107.745 367.146 105.711 360.429 104.627C353.712 103.542 345.384 103 335.444 103C325.503 103 315.025 104.085 304.01 106.254ZM335.444 118.455C343.772 118.455 351.429 118.998 358.414 120.082C365.399 121.167 372.653 122.929 380.176 125.37C387.698 127.81 394.683 130.793 401.131 134.317C404.355 136.08 407.579 137.842 410.803 139.605C407.982 140.283 405.161 140.961 402.34 141.638C396.698 142.994 390.788 144.892 384.608 147.332C378.429 149.773 369.429 154.925 357.608 162.788C345.787 170.651 334.235 180.006 322.951 190.852C311.667 201.697 301.189 213.899 291.518 227.456C281.846 241.014 276.741 249.148 276.204 251.86C275.667 254.571 281.846 268.806 294.741 294.565C307.637 320.324 315.025 333.746 316.906 334.83C318.787 335.915 322.414 336.864 327.787 337.677C333.16 338.491 341.891 338.898 353.981 338.898C366.071 338.898 375.877 338.491 383.4 337.677C390.922 336.864 400.997 335.102 413.624 332.39C426.251 329.679 436.46 326.967 444.251 324.256C452.042 321.544 459.296 318.426 466.013 314.901C469.371 313.139 472.729 311.376 476.087 309.614C474.207 314.359 472.326 319.104 470.446 323.849C466.684 333.339 462.789 341.202 458.759 347.439C454.729 353.675 448.684 360.996 440.624 369.402C432.564 377.807 424.236 384.721 415.639 390.144C407.042 395.567 402.474 399.499 401.937 401.939C401.4 404.38 401.265 406.142 401.534 407.227C401.803 408.311 402.743 409.396 404.355 410.48C405.967 411.565 407.713 411.972 409.594 411.701C411.475 411.429 415.639 409.26 422.087 405.193C428.535 401.126 435.117 396.245 441.833 390.551C445.191 387.704 448.55 384.857 451.908 382.01C455.401 386.213 458.893 390.416 462.386 394.618C469.371 403.024 476.759 422.682 484.55 453.593C492.341 484.503 504.834 517.99 522.028 554.053C539.223 590.115 547.82 608.553 547.82 609.367C547.82 610.18 547.014 610.858 545.402 611.4C543.79 611.942 533.178 614.925 513.566 620.348C493.953 625.771 483.207 629.296 481.326 630.923C479.446 632.55 478.64 634.719 478.908 637.43C479.177 640.142 479.983 641.904 481.326 642.718C482.67 643.531 484.819 643.802 487.774 643.531C490.729 643.26 512.222 637.295 552.253 625.635C592.283 613.976 613.507 607.468 615.925 606.113C618.343 604.757 623.179 604.079 630.433 604.079C637.687 604.079 644.806 605.435 651.792 608.146C658.777 610.858 665.493 615.061 671.941 620.755C678.389 626.449 683.359 632.007 686.852 637.43C690.344 642.853 701.225 666.307 719.494 707.793C737.763 749.278 747.435 770.428 748.509 771.241C749.584 772.055 751.196 772.461 753.345 772.461C755.495 772.461 759.121 770.97 764.226 767.987C769.331 765.005 774.569 762.971 779.943 761.887C785.316 760.802 791.092 760.531 797.271 761.073C803.45 761.615 809.227 763.107 814.6 765.547C819.973 767.987 824.675 771.106 828.705 774.902C832.735 778.698 836.093 783.172 838.779 788.323C841.466 793.475 843.212 798.627 844.018 803.779C844.824 808.931 844.959 813.269 844.421 816.794C843.884 820.319 843.078 823.166 842.003 825.335C840.929 827.504 811.779 842.553 754.554 870.481C697.33 898.409 667.24 912.509 664.284 912.78C661.329 913.051 657.836 912.373 653.806 910.746C649.777 909.119 646.15 906.543 642.926 903.018C639.702 899.494 630.567 880.92 615.522 847.298C600.477 813.676 591.477 795.373 588.522 792.391C585.567 789.408 582.343 787.103 578.85 785.476C575.358 783.849 570.522 783.036 564.342 783.036C558.163 783.036 552.924 784.256 548.626 786.696C544.327 789.137 526.327 797 494.625 810.286C462.923 823.572 442.639 831.707 433.773 834.689C424.908 837.672 415.639 839.299 405.967 839.57C396.295 839.841 389.982 839.706 387.026 839.163C384.071 838.621 379.504 837.401 373.325 835.503C367.146 833.605 360.698 830.893 353.981 827.368C347.265 823.844 341.354 820.183 336.25 816.387C331.145 812.591 324.831 806.626 317.309 798.491C309.786 790.357 301.592 778.291 292.727 762.293C288.294 754.294 283.861 746.296 279.428 738.297C285.204 740.602 290.98 742.906 296.756 745.211C308.309 749.821 315.966 753.21 319.727 755.379C323.488 757.548 327.787 759.311 332.623 760.666C337.459 762.022 343.369 762.836 350.354 763.107C357.339 763.378 364.056 762.7 370.504 761.073C376.952 759.446 383.4 756.735 389.847 752.939C396.295 749.143 402.34 743.991 407.982 737.483C413.624 730.976 417.922 724.062 420.878 716.741C423.833 709.42 425.579 701.828 426.117 693.964C426.654 686.101 426.385 679.594 425.311 674.442C424.236 669.29 422.758 664.545 420.878 660.207C418.997 655.868 416.982 652.072 414.833 648.818C412.684 645.565 409.594 642.175 405.564 638.65C401.534 635.125 399.519 632.685 399.519 631.329C399.519 629.974 398.713 627.398 397.101 623.602C395.489 619.806 393.206 616.281 390.25 613.027C387.295 609.773 374.668 602.588 352.369 591.471C341.22 585.912 330.07 580.354 318.921 574.795C322.951 567.068 326.981 559.34 331.011 551.612C339.07 536.157 343.1 527.073 343.1 524.362C343.1 521.651 342.429 519.753 341.085 518.668C339.742 517.583 338.265 517.041 336.653 517.041C335.041 517.041 333.294 517.854 331.414 519.481C329.533 521.108 324.025 530.463 314.891 547.545C305.757 564.627 301.055 574.389 300.786 576.829C300.518 579.269 300.786 581.167 301.592 582.523C302.398 583.879 307.906 586.861 318.115 591.471C328.324 596.08 341.085 602.452 356.399 610.587C371.713 618.721 380.176 624.28 381.788 627.262C383.4 630.245 384.205 633.363 384.205 636.617C384.205 639.871 382.594 642.989 379.37 645.971C376.146 648.954 374.802 651.801 375.34 654.512C375.877 657.224 377.758 658.851 380.982 659.393C384.205 659.935 387.698 658.715 391.459 655.733C393.34 654.241 395.221 652.75 397.101 651.259C398.445 653.021 399.788 654.784 401.131 656.546C403.818 660.071 406.101 664.409 407.982 669.561C409.863 674.713 410.803 681.22 410.803 689.084C410.803 696.947 409.46 704.268 406.773 711.047C404.086 717.825 400.325 723.79 395.489 728.942C390.653 734.094 386.086 737.89 381.788 740.33C377.489 742.771 373.593 744.533 370.101 745.618C366.608 746.702 361.638 747.38 355.19 747.651C348.742 747.923 344.175 747.787 341.488 747.245C338.802 746.702 334.772 745.075 329.399 742.364C324.025 739.653 297.025 728.536 248.398 709.013C199.77 689.49 173.038 678.238 168.202 675.255C163.366 672.273 159.068 668.748 155.307 664.68C151.545 660.613 148.59 656.546 146.441 652.479C144.291 648.412 142.545 643.531 141.202 637.837C139.859 632.143 139.187 626.584 139.187 621.161C139.187 615.738 139.59 610.722 140.396 606.113C141.202 601.503 142.411 597.843 144.023 595.131C145.635 592.42 157.053 561.78 178.277 503.213C199.501 444.645 213.203 411.701 219.382 404.38C225.561 397.059 229.188 393.127 230.263 392.585C231.338 392.042 232.278 390.822 233.084 388.924C233.89 387.026 234.158 384.044 233.89 379.976C233.621 375.909 230.666 370.757 225.024 364.521C219.382 358.285 214.009 350.828 208.904 342.151C203.8 333.475 199.501 323.713 196.009 312.868C192.516 302.022 190.367 293.616 189.561 287.651C188.755 281.686 188.352 274.636 188.352 266.501C188.352 258.367 189.426 248.741 191.576 237.624C193.725 226.507 196.949 216.068 201.248 206.307C205.546 196.546 208.904 189.767 211.322 185.971C213.74 182.175 216.427 178.379 219.382 174.583C222.337 170.787 227.039 165.77 233.487 159.534C239.935 153.298 246.114 148.146 252.024 144.079C257.935 140.012 264.92 136.08 272.98 132.284C281.04 128.488 288.428 125.641 295.144 123.743C301.861 121.845 308.175 120.489 314.085 119.676C319.996 118.862 327.115 118.455 335.444 118.455ZM426.52 151.4C428.4 151.671 432.564 155.06 439.012 161.568C445.46 168.075 450.296 173.498 453.52 177.836C456.744 182.175 460.505 188.411 464.804 196.546C469.102 204.68 472.192 211.459 474.072 216.882C475.953 222.305 477.699 229.083 479.311 237.218C480.923 245.352 481.864 252.673 482.132 259.181C482.401 265.688 482.132 272.06 481.326 278.296C480.52 284.533 478.237 289.142 474.475 292.125C470.714 295.107 465.878 298.09 459.968 301.073C454.057 304.055 443.848 307.716 429.34 312.054C414.833 316.392 401.668 319.375 389.847 321.002C378.026 322.629 364.459 323.171 349.145 322.629C333.832 322.087 320.533 310.698 309.249 288.464C297.965 266.23 292.324 254.571 292.324 253.486C292.324 252.402 296.219 246.437 304.01 235.591C311.801 224.745 322.279 213.086 335.444 200.613C348.608 188.14 360.429 178.65 370.907 172.142C381.385 165.635 392.803 160.483 405.161 156.687C417.519 152.891 424.639 151.129 426.52 151.4ZM194.8 348.659C199.098 356.251 203.8 363.03 208.904 368.995C214.009 374.96 216.696 379.027 216.964 381.197C217.233 383.366 213.875 388.382 206.889 396.245C199.904 404.108 191.71 420.92 182.307 446.678C177.605 459.558 172.904 472.437 168.202 485.317C163.098 472.844 157.993 460.371 152.889 447.899C142.68 422.953 136.769 409.26 135.157 406.82C133.545 404.38 132.202 401.397 131.127 397.872C130.052 394.347 129.381 390.416 129.112 386.077C128.844 381.739 129.381 377.265 130.724 372.655C132.067 368.046 134.485 363.843 137.978 360.047C141.471 356.251 150.739 351.506 165.784 345.812C180.829 340.118 190.501 341.067 194.8 348.659ZM633.254 341.338C639.702 341.88 645.478 343.236 650.583 345.405C655.687 347.574 660.389 350.421 664.687 353.946C668.986 357.471 672.344 360.861 674.762 364.114C677.18 367.368 679.464 371.571 681.613 376.723C683.762 381.874 685.105 388.246 685.643 395.838C686.18 403.431 685.911 409.396 684.837 413.734C683.762 418.073 682.15 422.682 680.001 427.563C677.852 432.443 672.478 443.56 663.881 460.914C655.284 478.267 648.568 486.266 643.732 484.91C638.896 483.554 633.254 482.741 626.806 482.47C620.358 482.199 613.373 482.47 605.851 483.283C598.328 484.097 591.612 485.317 585.701 486.944C579.79 488.571 574.417 490.74 569.581 493.451C564.745 496.163 561.387 498.468 559.507 500.366C557.626 502.264 552.521 509.178 544.193 521.108C540.029 527.073 535.864 533.039 531.7 539.004C528.208 531.683 524.715 524.362 521.222 517.041C514.237 502.399 508.461 486.13 503.894 468.235C501.61 459.287 499.327 450.339 497.043 441.391C501.207 443.425 505.371 445.458 509.536 447.492C517.864 451.559 523.372 453.457 526.058 453.186C528.745 452.915 530.491 452.373 531.297 451.559C532.103 450.746 532.641 449.39 532.909 447.492C533.178 445.594 537.745 433.799 546.611 412.107C555.477 390.416 561.387 378.485 564.342 376.316C567.298 374.147 570.253 372.927 573.208 372.655C576.164 372.384 579.253 373.74 582.477 376.723C585.701 379.705 588.522 381.061 590.94 380.79C593.358 380.519 594.97 379.841 595.776 378.756C596.582 377.672 596.985 375.909 596.985 373.469C596.985 371.029 595.238 367.91 591.746 364.114C590 362.216 588.253 360.318 586.507 358.42C587.85 357.2 589.194 355.98 590.537 354.76C593.224 352.319 596.447 350.015 600.209 347.845C603.97 345.676 608.806 343.914 614.716 342.558C620.627 341.202 626.806 340.796 633.254 341.338ZM619.955 498.332C628.821 498.332 635.403 498.739 639.702 499.552C644 500.366 661.195 510.398 691.285 529.649C721.375 548.901 737.226 558.527 738.838 558.527C740.45 558.527 742.062 557.849 743.673 556.493C745.285 555.137 747.3 551.883 749.718 546.732C752.136 541.58 755.092 537.241 758.584 533.717C762.077 530.192 766.107 527.073 770.674 524.362C775.241 521.651 779.271 519.753 782.764 518.668C786.256 517.583 790.286 516.905 794.853 516.634C799.421 516.363 804.525 516.905 810.167 518.261C815.809 519.617 820.645 521.515 824.675 523.955C828.705 526.396 832.332 529.378 835.555 532.903C838.779 536.428 841.332 541.038 843.212 546.732C845.093 552.426 829.242 583.336 795.659 639.464C762.077 695.591 744.882 723.655 744.076 723.655C743.27 723.655 742.196 722.435 740.853 719.994C739.509 717.554 738.703 715.114 738.435 712.673C738.166 710.233 737.36 708.2 736.017 706.573C734.673 704.946 729.166 692.88 719.494 670.375C709.822 647.869 702.837 633.499 698.538 627.262C694.24 621.026 688.732 614.925 682.016 608.96C675.299 602.995 669.523 598.792 664.687 596.351C659.851 593.911 655.553 592.149 651.792 591.064C648.03 589.98 642.388 589.166 634.866 588.624C627.343 588.082 620.896 588.353 615.522 589.437C610.149 590.522 605.985 591.878 603.03 593.504C600.074 595.131 593.089 597.572 582.074 600.825C571.059 604.079 565.014 605.57 563.939 605.299C562.865 605.028 560.313 600.148 556.283 590.657C552.253 581.167 549.297 575.066 547.417 572.355C545.536 569.644 543.79 565.983 542.178 561.374C540.566 556.764 545.268 546.867 556.283 531.683C567.298 516.499 575.089 507.822 579.656 505.653C584.223 503.484 589.865 501.721 596.582 500.366C603.298 499.01 611.089 498.332 619.955 498.332Z" fill="url(#LinearGradient_3)" fill-rule="nonzero" opacity="1" stroke="none"/>
<g opacity="1"/>
<path class="svg-internal" d="M733.981 202.88L705.24 219.264C703.211 220.412 701.679 221.559 700.644 222.707C699.609 223.855 699.092 225.176 699.092 226.672C699.092 228.414 699.911 230.689 701.551 233.497L703.518 236.847C705.875 240.946 708.385 242.995 711.049 242.995C712.709 242.995 714.851 242.216 717.474 240.659L744.555 224.859L742.25 223.598L742.096 255.475C742.076 259.553 742.87 262.258 744.479 263.59C746.087 264.923 748.92 265.589 752.978 265.589L756.82 265.589C760.858 265.589 763.675 264.923 765.274 263.59C766.872 262.258 767.661 259.533 767.641 255.414L767.487 223.598L765.212 224.859L792.324 240.567C793.656 241.345 794.866 241.945 795.952 242.365C797.038 242.785 798.042 242.995 798.964 242.995C800.337 242.995 801.613 242.508 802.791 241.535C803.97 240.562 805.235 239.019 806.588 236.909L808.493 233.62C810.112 230.976 810.922 228.732 810.922 226.888C810.922 225.31 810.384 223.937 809.308 222.769C808.232 221.6 806.659 220.443 804.589 219.295L775.633 202.88L775.633 206.292L804.559 190.4C806.588 189.314 808.109 188.187 809.124 187.019C810.138 185.85 810.645 184.498 810.645 182.961C810.645 181.219 809.856 178.985 808.278 176.26L806.311 172.909C803.872 168.749 801.362 166.669 798.78 166.669C797.017 166.669 794.835 167.458 792.232 169.036L765.335 184.898L767.579 186.127L767.702 154.588C767.702 150.49 766.898 147.78 765.289 146.458C763.68 145.136 760.858 144.475 756.82 144.475L752.978 144.475C748.92 144.475 746.092 145.136 744.494 146.458C742.895 147.78 742.106 150.5 742.127 154.619L742.25 186.127L744.617 184.898L717.566 169.097C716.255 168.319 715.03 167.709 713.893 167.268C712.755 166.828 711.695 166.608 710.711 166.608C709.297 166.608 707.981 167.099 706.761 168.083C705.542 169.067 704.348 170.655 703.18 172.848L701.274 176.106C699.84 178.852 699.122 181.096 699.122 182.838C699.122 184.395 699.645 185.763 700.69 186.942C701.735 188.12 703.283 189.283 705.332 190.431L733.981 206.231L733.981 202.88Z" fill="#d7e5ff" opacity="1" stroke="none"/>
<path  d="M664.221 207.353C664.221 154.886 706.754 112.353 759.221 112.353C811.688 112.353 854.221 154.886 854.221 207.353C854.221 259.82 811.688 302.353 759.221 302.353C706.754 302.353 664.221 259.82 664.221 207.353Z" fill="#d7e5ff" fill-opacity="0.123873" fill-rule="nonzero" filter="url(#Filter)" opacity="1" stroke="none"/>
</g>
</svg>
