<svg width="50" height="50" viewBox="0 0 50 50" fill="none" xmlns="http://www.w3.org/2000/svg">
<path fill-rule="evenodd" clip-rule="evenodd" d="M9.35459 26.797C9.41709 28.0876 10.7062 27.4907 11.2905 27.0876C11.8452 26.7048 12.0077 27.0236 12.0562 26.2673C12.1064 25.7716 12.1268 25.2733 12.1171 24.7751C11.2563 24.6888 10.3927 24.9102 9.67959 25.4001C9.32491 25.6579 8.66241 26.4782 9.35459 26.8064" fill="#F6D2A2"/>
<path d="M10.025 27.7062C9.89757 27.7086 9.77134 27.6813 9.65625 27.6266C9.52475 27.5505 9.41617 27.4404 9.34193 27.3079C9.26769 27.1754 9.23054 27.0253 9.23437 26.8734C9.14911 26.8322 9.07571 26.77 9.02106 26.6927C8.9664 26.6153 8.93227 26.5254 8.92188 26.4312C8.94519 26.2043 9.01765 25.9851 9.13422 25.7889C9.25078 25.5927 9.40866 25.4243 9.59688 25.2953C10.3331 24.7863 11.227 24.5574 12.1172 24.65L12.2234 24.6594V24.7656C12.2372 25.155 12.2251 25.545 12.1875 25.9328C12.1781 26.0469 12.1703 26.1594 12.1625 26.2734C12.1281 26.8094 12.0281 26.8906 11.7516 26.9859C11.6063 27.0323 11.4688 27.1003 11.3438 27.1875C10.9561 27.4709 10.5019 27.6495 10.025 27.7062ZM11.7594 24.8812C11.0417 24.8717 10.3391 25.0869 9.75 25.4969C9.49687 25.6812 9.14531 26.1125 9.175 26.4094C9.18386 26.4722 9.21003 26.5314 9.2506 26.5802C9.29116 26.6291 9.34451 26.6657 9.40469 26.6859L9.47187 26.7172V26.7906C9.4875 27.1125 9.58438 27.3187 9.76094 27.4062C10.1016 27.575 10.7359 27.3156 11.2156 26.9859C11.3595 26.886 11.5175 26.808 11.6844 26.7547C11.8656 26.6922 11.9031 26.6781 11.9297 26.2578C11.9297 26.1437 11.9453 26.0297 11.9547 25.9141C11.9866 25.5723 12.0001 25.2291 11.9953 24.8859C11.9151 24.8828 11.837 24.8812 11.7609 24.8812H11.7594Z" fill="black"/>
<path fill-rule="evenodd" clip-rule="evenodd" d="M9.35474 26.7969C9.55091 26.7535 9.72981 26.6529 9.8688 26.5078L9.35474 26.7969Z" fill="#C6B198"/>
<path d="M9.35475 26.9203C9.32659 26.9192 9.29966 26.9085 9.27842 26.89C9.25718 26.8715 9.24291 26.8463 9.23799 26.8185C9.23306 26.7908 9.23777 26.7622 9.25134 26.7375C9.2649 26.7128 9.2865 26.6935 9.31256 26.6828L9.39537 26.6531C9.53983 26.6201 9.67102 26.5444 9.77193 26.4359C9.78081 26.4211 9.79269 26.4083 9.80681 26.3984C9.82093 26.3885 9.83697 26.3817 9.8539 26.3783C9.87083 26.375 9.88827 26.3752 9.9051 26.379C9.92193 26.3829 9.93777 26.3902 9.9516 26.4005C9.96543 26.4108 9.97694 26.4239 9.9854 26.4389C9.99385 26.454 9.99906 26.4706 10.0007 26.4878C10.0023 26.505 10.0003 26.5223 9.99481 26.5387C9.98932 26.555 9.98047 26.5701 9.96881 26.5828C9.83994 26.7311 9.66871 26.8364 9.47818 26.8844L9.3985 26.9125C9.38452 26.9177 9.36969 26.9204 9.35475 26.9203Z" fill="black"/>
<path fill-rule="evenodd" clip-rule="evenodd" d="M12.3344 11.4204C7.39222 10.0313 11.0672 3.7501 15.0344 6.33135L12.3344 11.4204Z" fill="#6AD7E5"/>
<path d="M12.3969 11.5625L12.3015 11.5359C11.7067 11.4347 11.156 11.1572 10.7208 10.7393C10.2857 10.3214 9.98607 9.78238 9.86092 9.19215C9.80223 8.58571 9.91404 7.97493 10.1838 7.42861C10.4535 6.88229 10.8704 6.42213 11.3875 6.09996C11.9481 5.7461 12.6022 5.56895 13.2648 5.59152C13.9274 5.61409 14.5679 5.83533 15.1031 6.22652L15.1969 6.28746L12.3969 11.5625ZM13.0984 5.83433C12.5381 5.8345 11.9899 5.99734 11.5203 6.30308C11.0424 6.59899 10.6566 7.02236 10.4062 7.52558C10.1559 8.02879 10.0509 8.59189 10.1031 9.15152C10.2154 9.67967 10.4811 10.1629 10.8669 10.5407C11.2527 10.9184 11.7415 11.1739 12.2719 11.275L14.8734 6.3734C14.343 6.0333 13.7284 5.84772 13.0984 5.83746V5.83433Z" fill="black"/>
<path fill-rule="evenodd" clip-rule="evenodd" d="M34.2876 5.85944C38.1938 3.11256 41.7329 9.311 37.1876 10.8704L34.2876 5.85944Z" fill="#6AD7E5"/>
<path d="M37.1328 11.0188L34.125 5.8235L34.2172 5.75943C34.7175 5.3589 35.3256 5.11633 35.9642 5.06263C36.6028 5.00892 37.243 5.14651 37.8031 5.45787C38.3326 5.76848 38.7654 6.21997 39.0535 6.76207C39.3415 7.30416 39.4733 7.91557 39.4344 8.52818C39.3551 9.11195 39.1022 9.65841 38.7085 10.0967C38.3148 10.5349 37.7985 10.8448 37.2266 10.986L37.1328 11.0188ZM34.4516 5.89537L37.2438 10.7188C37.7497 10.581 38.204 10.2975 38.5501 9.90356C38.8963 9.50964 39.119 9.02266 39.1906 8.50318C39.2257 7.93719 39.1031 7.37257 38.8363 6.87215C38.5696 6.37173 38.1692 5.95516 37.6797 5.66881C37.18 5.3817 36.606 5.24992 36.0311 5.29027C35.4562 5.33062 34.9063 5.54127 34.4516 5.89537Z" fill="black"/>
<path fill-rule="evenodd" clip-rule="evenodd" d="M35.1296 42.6829C36.1234 43.2969 37.9421 45.1563 36.4484 46.0579C35.0171 47.3688 34.2156 44.6188 32.9578 44.2376C33.1994 43.848 33.5157 43.5101 33.8884 43.2433C34.2612 42.9765 34.683 42.786 35.1296 42.6829Z" fill="#F6D2A2"/>
<path d="M35.6938 46.5327H35.6345C35.0704 46.4983 34.6017 45.9483 34.1485 45.4155C33.8375 44.9632 33.415 44.5989 32.922 44.3577L32.7563 44.3077L32.8595 44.1671C33.3692 43.3567 34.1785 42.7805 35.111 42.564H35.1563L35.1954 42.5874C35.8313 42.9812 37.1438 44.1312 37.1376 45.1718C37.1343 45.3774 37.0755 45.5783 36.9674 45.7532C36.8593 45.9282 36.706 46.0706 36.5235 46.1655C36.3035 46.3887 36.007 46.5199 35.6938 46.5327ZM33.1548 44.189C33.6181 44.4618 34.0202 44.8273 34.336 45.2624C34.7751 45.778 35.1907 46.2655 35.6501 46.2937C35.7842 46.2933 35.9168 46.2654 36.0396 46.2116C36.1624 46.1578 36.2729 46.0794 36.3642 45.9812L36.3829 45.9671C36.5317 45.8944 36.6576 45.7822 36.7468 45.6427C36.8361 45.5033 36.8854 45.342 36.8892 45.1765C36.8892 44.3452 35.8392 43.3015 35.1017 42.8327C34.3046 43.0177 33.6082 43.5 33.1548 44.1812V44.189Z" fill="black"/>
<path d="M36.4484 46.1812C36.4257 46.1811 36.4036 46.1748 36.3843 46.163C36.365 46.1511 36.3493 46.1342 36.339 46.114C36.2663 45.9615 36.2021 45.805 36.1468 45.6453C36.0616 45.3449 35.9087 45.068 35.6999 44.8359C35.6806 44.8125 35.6706 44.7828 35.6717 44.7525C35.6729 44.7222 35.6852 44.6934 35.7062 44.6715C35.7273 44.6497 35.7557 44.6364 35.7859 44.6341C35.8162 44.6319 35.8462 44.6409 35.8703 44.6593C36.1069 44.9166 36.2808 45.2252 36.3781 45.5609C36.4306 45.7099 36.4911 45.8559 36.5593 45.9984C36.574 46.0276 36.5765 46.0615 36.5662 46.0925C36.556 46.1236 36.5338 46.1493 36.5046 46.164C36.4876 46.1743 36.4683 46.1802 36.4484 46.1812Z" fill="black"/>
<path fill-rule="evenodd" clip-rule="evenodd" d="M17.3813 44.7844C16.2157 44.9641 15.5594 46.0173 14.5875 46.5516C13.6719 47.0985 13.3203 46.3766 13.2391 46.2298C13.0953 46.1641 13.1078 46.2907 12.886 46.0735C12.0313 44.7266 13.7688 43.7501 14.6719 43.0813C15.9297 42.8266 16.7188 43.9173 17.3813 44.7844Z" fill="#F6D2A2"/>
<path d="M13.9671 46.8751C13.8927 46.8755 13.8186 46.8661 13.7468 46.8469C13.6184 46.805 13.4997 46.7378 13.3977 46.6492C13.2957 46.5607 13.2125 46.4526 13.153 46.3313H13.1249C13.0218 46.3313 12.9452 46.3094 12.7921 46.1547L12.7749 46.1344C11.9577 44.8438 13.3483 43.8641 14.2702 43.2157C14.3858 43.1344 14.4952 43.0594 14.5936 42.9844L14.6155 42.9688H14.6421C15.9374 42.7063 16.7561 43.7782 17.4124 44.6391L17.5983 44.8813L17.3936 44.9126C16.7351 45.0706 16.1359 45.4145 15.6671 45.9032C15.3517 46.1916 15.0077 46.4471 14.6405 46.6657C14.4387 46.7943 14.2062 46.8665 13.9671 46.8751ZM13.1436 46.0844C13.1934 46.0845 13.2425 46.0957 13.2874 46.1172L13.3233 46.1344L13.3546 46.1891C13.3986 46.2862 13.4617 46.3734 13.54 46.4456C13.6184 46.5178 13.7105 46.5735 13.8108 46.6094C13.934 46.6323 14.0605 46.6303 14.1829 46.6034C14.3053 46.5766 14.421 46.5255 14.5233 46.4532C14.877 46.2419 15.2084 45.9953 15.5124 45.7172C15.9745 45.2554 16.5402 44.9104 17.1624 44.711C16.5374 43.8891 15.8155 43.0016 14.7218 43.2063C14.6265 43.2751 14.5233 43.3485 14.4093 43.4235C13.4718 44.086 12.2968 44.911 12.9733 45.9985C13.0702 46.0954 13.0936 46.0938 13.114 46.0938L13.1436 46.0844Z" fill="black"/>
<path d="M13.2376 46.3517H13.2267C13.1942 46.3489 13.1641 46.3333 13.143 46.3085C13.1219 46.2836 13.1116 46.2514 13.1142 46.2188C13.1646 45.8912 13.301 45.5828 13.5095 45.3251C13.6078 45.1891 13.694 45.0448 13.7673 44.8938C13.782 44.8663 13.8066 44.8454 13.8361 44.8353C13.8655 44.8252 13.8978 44.8266 13.9263 44.8393C13.9548 44.8519 13.9774 44.8749 13.9897 44.9036C14.0019 44.9323 14.0028 44.9645 13.9923 44.9938C13.9135 45.1579 13.8204 45.3148 13.7142 45.4626C13.5302 45.6877 13.4085 45.9571 13.361 46.2438C13.3572 46.2738 13.3425 46.3013 13.3198 46.3212C13.297 46.3411 13.2678 46.3519 13.2376 46.3517Z" fill="black"/>
<path fill-rule="evenodd" clip-rule="evenodd" d="M12.5405 9.68746C11.889 9.34215 11.4109 8.87496 11.8093 8.12496C12.178 7.42652 12.864 7.49996 13.5155 7.84684L12.5405 9.68746Z" fill="black"/>
<path fill-rule="evenodd" clip-rule="evenodd" d="M36.1579 9.02804C36.8094 8.68272 37.2875 8.21554 36.8891 7.46554C36.5204 6.7671 35.8344 6.84054 35.1829 7.18741L36.1579 9.02804Z" fill="black"/>
<path fill-rule="evenodd" clip-rule="evenodd" d="M40.6452 26.6344C40.5827 27.925 39.2937 27.3281 38.7093 26.925C38.1546 26.5422 37.9921 26.861 37.9437 26.1047C37.8934 25.609 37.873 25.1107 37.8827 24.6125C38.7436 24.5262 39.6071 24.7476 40.3202 25.2375C40.6749 25.4953 41.3374 26.3156 40.6452 26.6438" fill="#F6D2A2"/>
<path d="M39.9749 27.5421C39.4927 27.4885 39.0329 27.3102 38.6405 27.0249C38.5154 26.9377 38.378 26.8697 38.2327 26.8233C37.9561 26.7265 37.8561 26.6452 37.8218 26.1108C37.8218 25.9968 37.8061 25.8843 37.7968 25.7702C37.7592 25.3824 37.7472 24.9924 37.7608 24.603V24.4968L37.8671 24.4874C38.7573 24.3949 39.6512 24.6237 40.3874 25.1327C40.5756 25.2617 40.7335 25.4301 40.8501 25.6263C40.9666 25.8225 41.0391 26.0417 41.0624 26.2686C41.052 26.3628 41.0179 26.4527 40.9632 26.5301C40.9086 26.6074 40.8352 26.6696 40.7499 26.7108C40.7537 26.8627 40.7166 27.0128 40.6423 27.1453C40.5681 27.2778 40.4595 27.3879 40.328 27.464C40.2176 27.5158 40.0969 27.5425 39.9749 27.5421ZM38.0015 24.7296C37.9966 25.0728 38.0102 25.416 38.0421 25.7577C38.0515 25.8718 38.0593 25.9858 38.0671 26.1015C38.0936 26.5218 38.1311 26.5343 38.3124 26.5983C38.4793 26.6517 38.6373 26.7296 38.7811 26.8296C39.2593 27.1608 39.8952 27.4186 40.2358 27.2499C40.4124 27.1624 40.5093 26.9561 40.5249 26.6343V26.5608L40.5921 26.5296C40.6523 26.5093 40.7056 26.4727 40.7462 26.4239C40.7867 26.3751 40.8129 26.3159 40.8218 26.253C40.8499 25.9561 40.4999 25.5249 40.2468 25.3405C39.5909 24.8842 38.7983 24.6668 38.0015 24.7249V24.7296Z" fill="black"/>
<path fill-rule="evenodd" clip-rule="evenodd" d="M40.6454 26.6343C40.4492 26.5909 40.2703 26.4903 40.1313 26.3452L40.6454 26.6343Z" fill="#C6B198"/>
<path d="M40.6454 26.7562C40.6315 26.7587 40.6172 26.7587 40.6032 26.7562L40.5235 26.7281C40.333 26.6802 40.1617 26.5749 40.0329 26.4265C40.0212 26.4138 40.0124 26.3988 40.0069 26.3824C40.0014 26.3661 39.9994 26.3487 40.001 26.3316C40.0027 26.3144 40.0079 26.2977 40.0163 26.2827C40.0248 26.2676 40.0363 26.2545 40.0501 26.2442C40.0639 26.2339 40.0798 26.2266 40.0966 26.2228C40.1134 26.219 40.1309 26.2187 40.1478 26.2221C40.1647 26.2254 40.1808 26.2323 40.1949 26.2422C40.209 26.2521 40.2209 26.2649 40.2298 26.2797C40.3307 26.3882 40.4619 26.4638 40.6063 26.4969L40.6892 26.5265C40.7152 26.5373 40.7368 26.5566 40.7504 26.5813C40.7639 26.606 40.7687 26.6345 40.7637 26.6623C40.7588 26.69 40.7445 26.7152 40.7233 26.7338C40.7021 26.7523 40.6751 26.763 40.647 26.764L40.6454 26.7562Z" fill="black"/>
<path fill-rule="evenodd" clip-rule="evenodd" d="M24.5046 3.24854C29.4515 3.24854 34.089 3.95635 36.5062 8.70947C38.6765 14.036 37.9046 19.7813 38.2359 25.411C38.5202 30.2454 39.1499 35.8298 36.9077 40.311C34.5484 45.0235 28.653 46.2095 23.7952 46.036C19.9796 45.9001 15.3718 44.6548 13.2187 41.1688C10.6921 37.0798 11.889 30.9985 12.0718 26.4485C12.289 21.0595 10.6124 15.6517 12.3843 10.3782C14.2218 4.90947 19.1749 3.67041 24.5062 3.24854" fill="#6AD7E5"/>
<path d="M24.6406 46.1719C24.3281 46.1719 24.0468 46.1719 23.7921 46.1562C21.4484 46.0719 15.7046 45.4234 13.1156 41.2313C11.0734 37.925 11.4374 33.3547 11.7577 29.3219C11.839 28.3078 11.914 27.3484 11.9515 26.4422C11.988 24.5296 11.906 22.6165 11.7062 20.7141C11.1748 17.2535 11.3663 13.7203 12.2687 10.3375C12.6425 9.13196 13.2636 8.01759 14.0922 7.06549C14.9208 6.11339 15.9388 5.34448 17.0812 4.80781C19.424 3.78339 21.9398 3.21237 24.4952 3.125H24.5046C29.3343 3.125 34.1452 3.79531 36.6156 8.65313V8.6625C37.933 12.563 38.4868 16.6807 38.2468 20.7906C38.2546 22.3047 38.264 23.8719 38.3531 25.4031C38.3796 25.8719 38.4109 26.3406 38.4421 26.8094C38.7296 31.2484 39.0546 36.2812 37.0124 40.3609C34.4671 45.4562 28.0421 46.1719 24.6406 46.1719ZM24.5093 3.37031C19.3624 3.77813 14.3531 4.91406 12.4984 10.4156C11.6081 13.767 11.4203 17.2663 11.9468 20.6938C12.1459 22.6067 12.2263 24.5302 12.1874 26.4531C12.1499 27.3656 12.0749 28.3281 11.9937 29.3438C11.6812 33.3391 11.3156 37.8672 13.3156 41.1047C15.8437 45.1969 21.4843 45.8313 23.7921 45.9125C26.7952 46.0203 34.0718 45.6828 36.789 40.2547C38.8015 36.2344 38.4781 31.2375 38.1952 26.8297C38.164 26.3609 38.1343 25.8828 38.1062 25.4234C38.0156 23.8859 38.0077 22.3156 37.9999 20.7984C38.2383 16.7219 37.6914 12.6375 36.389 8.76719C33.9843 4.025 29.2577 3.37188 24.5093 3.37031Z" fill="black"/>
<path fill-rule="evenodd" clip-rule="evenodd" d="M25.3781 9.88913C26.2656 15.0454 34.7062 13.6876 33.4937 8.48288C32.4 3.81413 25.0828 5.10631 25.3781 9.88913Z" fill="white"/>
<path d="M29.3874 13.2578C28.8623 13.2597 28.3406 13.1742 27.8437 13.0046C27.1671 12.7808 26.5666 12.3722 26.1101 11.8249C25.6537 11.2776 25.3595 10.6135 25.2608 9.90776V9.89526C25.1986 8.81628 25.5572 7.7552 26.2612 6.93519C26.9653 6.11518 27.9599 5.60014 29.0358 5.49838C30.0335 5.29137 31.0725 5.48527 31.9283 6.03817C32.7841 6.59107 33.3879 7.45854 33.6093 8.45307C33.7924 9.10067 33.791 9.78655 33.6052 10.4334C33.4194 11.0802 33.0566 11.6623 32.5577 12.114C31.6739 12.8659 30.5477 13.2722 29.3874 13.2578ZM25.4968 9.87495C25.5906 10.537 25.8672 11.1598 26.2957 11.6732C26.7241 12.1866 27.2872 12.5703 27.9218 12.7812C28.6779 13.0347 29.4863 13.0903 30.27 12.9426C31.0537 12.7949 31.7864 12.4488 32.3983 11.9374C32.8663 11.5131 33.2061 10.9662 33.3793 10.3587C33.5524 9.75112 33.552 9.10725 33.378 8.49995C33.1668 7.56415 32.5954 6.74923 31.7877 6.23161C30.98 5.71399 30.0009 5.53533 29.0624 5.73432C28.0484 5.83047 27.1109 6.31521 26.4463 7.08704C25.7816 7.85886 25.4414 8.8579 25.4968 9.87495Z" fill="black"/>
<path fill-rule="evenodd" clip-rule="evenodd" d="M15.2937 10.7234C16.4437 15.2187 23.6405 14.0625 23.3687 9.55935C23.0437 4.15935 14.1921 5.20154 15.2921 10.7234" fill="white"/>
<path d="M19.1328 13.689C18.4009 13.696 17.6787 13.521 17.0312 13.1796C16.569 12.9287 16.1652 12.5827 15.8463 12.1644C15.5275 11.7462 15.3008 11.2652 15.1812 10.753C15.0036 10.0532 15.0308 9.31715 15.2596 8.63237C15.4884 7.9476 15.9092 7.343 16.4718 6.89055C17.1507 6.37288 17.9541 6.04339 18.8009 5.93531C19.6478 5.82722 20.5081 5.94437 21.2953 6.27492C21.936 6.55478 22.4827 7.01282 22.8705 7.59453C23.2584 8.17625 23.4709 8.85714 23.4828 9.55617C23.5191 10.5639 23.1688 11.5475 22.5036 12.3053C21.8384 13.0632 20.9086 13.5381 19.9046 13.6327C19.6492 13.6714 19.3911 13.6902 19.1328 13.689ZM15.4062 10.6984C15.6539 11.6405 16.2584 12.4493 17.0919 12.9535C17.9254 13.4577 18.9224 13.6178 19.8718 13.3999C20.8183 13.3128 21.6958 12.8672 22.3246 12.1544C22.9535 11.4417 23.2862 10.5155 23.2547 9.56555C23.2447 8.90818 23.0458 8.26756 22.6818 7.72011C22.3177 7.17266 21.8039 6.74149 21.2015 6.47805C20.4533 6.16347 19.6353 6.05186 18.8301 6.15446C18.0249 6.25706 17.261 6.57025 16.6156 7.06242C16.0869 7.48892 15.6918 8.05834 15.4774 8.70293C15.263 9.34752 15.2383 10.0401 15.4062 10.6984Z" fill="black"/>
<path fill-rule="evenodd" clip-rule="evenodd" d="M26.397 16.0843C26.471 16.7951 26.4793 17.5111 26.422 18.2234C26.2501 18.5468 25.9142 18.5812 25.6251 18.7125C25.4281 18.6815 25.2422 18.6008 25.085 18.4781C24.9278 18.3553 24.8045 18.1945 24.7267 18.0109C24.6836 17.2037 24.705 16.3944 24.7907 15.5906L26.397 16.0843Z" fill="white"/>
<path d="M25.6421 18.839H25.6061C25.3878 18.8044 25.1819 18.7144 25.0082 18.5777C24.8345 18.4409 24.6988 18.2619 24.6139 18.0578V18.0421V18.025C24.5619 17.4723 24.5666 16.9157 24.628 16.364C24.6483 16.1093 24.6686 15.8468 24.6764 15.5828V15.4265L26.5218 15.9921V16.0828C26.5218 16.3046 26.5405 16.5343 26.5593 16.7765C26.6166 17.2642 26.6124 17.7571 26.5468 18.2437V18.2625L26.5374 18.2796C26.4663 18.397 26.3724 18.4989 26.2613 18.5794C26.1502 18.6599 26.0241 18.7174 25.8905 18.7484C25.8171 18.775 25.7483 18.7984 25.6811 18.8296L25.6421 18.839ZM24.8468 17.9781C24.9153 18.1333 25.0205 18.2695 25.1533 18.3751C25.2861 18.4807 25.4426 18.5525 25.6093 18.5843C25.6733 18.5578 25.7389 18.5343 25.8014 18.5109C26.0048 18.4687 26.1847 18.3508 26.3046 18.1812C26.3604 17.7209 26.3604 17.2556 26.3046 16.7953C26.2889 16.5812 26.2733 16.3765 26.2686 16.1703L24.9014 15.7515C24.8905 15.964 24.8749 16.175 24.8593 16.3765C24.7997 16.9085 24.7945 17.4451 24.8436 17.9781H24.8468Z" fill="black"/>
<path d="M17.2781 11.3063C17.9495 11.3063 18.4938 10.7173 18.4938 9.99067C18.4938 9.26407 17.9495 8.67505 17.2781 8.67505C16.6068 8.67505 16.0625 9.26407 16.0625 9.99067C16.0625 10.7173 16.6068 11.3063 17.2781 11.3063Z" fill="black"/>
<path d="M17.8313 10.6219C17.9893 10.6219 18.1173 10.4722 18.1173 10.2875C18.1173 10.1028 17.9893 9.95312 17.8313 9.95312C17.6734 9.95312 17.5454 10.1028 17.5454 10.2875C17.5454 10.4722 17.6734 10.6219 17.8313 10.6219Z" fill="white"/>
<path d="M27.4595 10.9782C28.1196 10.9782 28.6548 10.3891 28.6548 9.66255C28.6548 8.93595 28.1196 8.34692 27.4595 8.34692C26.7993 8.34692 26.2642 8.93595 26.2642 9.66255C26.2642 10.3891 26.7993 10.9782 27.4595 10.9782Z" fill="black"/>
<path d="M28.0032 10.2937C28.1585 10.2937 28.2844 10.144 28.2844 9.95938C28.2844 9.77471 28.1585 9.625 28.0032 9.625C27.8478 9.625 27.7219 9.77471 27.7219 9.95938C27.7219 10.144 27.8478 10.2937 28.0032 10.2937Z" fill="white"/>
<path fill-rule="evenodd" clip-rule="evenodd" d="M22.9233 16.011C22.3936 17.2954 23.2186 19.8657 24.6577 17.9704C24.6146 17.1632 24.636 16.3538 24.7218 15.55L22.9233 16.011Z" fill="white"/>
<path d="M23.6969 18.7703C23.5727 18.7697 23.4508 18.7363 23.3437 18.6734C22.999 18.3242 22.7646 17.8812 22.6698 17.3997C22.5751 16.9182 22.6242 16.4194 22.8109 15.9656L22.8344 15.9094L24.8437 15.3906V15.5469C24.8359 15.8125 24.814 16.0781 24.7937 16.3281C24.733 16.8631 24.7278 17.403 24.7781 17.9391V17.9891L24.7484 18.0297C24.3344 18.5937 23.9765 18.7703 23.6969 18.7703ZM23.0156 16.1141C22.8666 16.5081 22.8297 16.9358 22.9091 17.3496C22.9886 17.7633 23.1812 18.147 23.4656 18.4578C23.8375 18.6703 24.2469 18.3016 24.5297 17.9344C24.4846 17.398 24.4914 16.8585 24.55 16.3234C24.5656 16.1219 24.5812 15.9156 24.5922 15.7109L23.0156 16.1141Z" fill="black"/>
<path fill-rule="evenodd" clip-rule="evenodd" d="M23.1047 13.5358C22.8581 13.559 22.6206 13.6405 22.4117 13.7735C22.2027 13.9066 22.0284 14.0874 21.9031 14.3011C21.7778 14.5147 21.7051 14.7551 21.691 15.0024C21.6769 15.2497 21.7218 15.4968 21.8219 15.7233C22.5016 16.9546 24.0204 15.614 24.9672 15.7405C26.061 15.7624 26.9485 16.8921 27.8219 15.9452C28.7938 14.8921 27.4032 13.8655 26.3157 13.4077L23.1047 13.5358Z" fill="#F6D2A2"/>
<path d="M27.0437 16.4469C26.6949 16.4195 26.3547 16.3245 26.0422 16.1672C25.7054 15.9998 25.3402 15.897 24.9656 15.8641H24.9515C24.5681 15.8643 24.1891 15.9452 23.839 16.1016C23.0718 16.3672 22.2015 16.6672 21.714 15.7891C21.5959 15.568 21.5359 15.3205 21.5397 15.0698C21.5435 14.8192 21.6111 14.5736 21.7359 14.3562C21.8675 14.1002 22.0603 13.8806 22.2971 13.7171C22.534 13.5535 22.8077 13.451 23.0937 13.4188L26.339 13.2812L26.364 13.2922C27.1718 13.6328 28.0922 14.2563 28.25 14.9844C28.2711 15.1602 28.2564 15.3385 28.2065 15.5084C28.1566 15.6783 28.0728 15.8364 27.9599 15.9729C27.8471 16.1094 27.7077 16.2215 27.5502 16.3024C27.3927 16.3834 27.2204 16.4315 27.0437 16.4438V16.4469ZM24.9765 15.625C25.3803 15.6581 25.7742 15.7673 26.1375 15.9469C26.7515 16.2047 27.2312 16.4078 27.7328 15.8688C27.8447 15.7656 27.9288 15.636 27.9774 15.4918C28.026 15.3477 28.0375 15.1936 28.0109 15.0438C27.875 14.4188 27.0078 13.8422 26.2922 13.5375L23.1109 13.6641C22.8667 13.6948 22.6336 13.7844 22.4317 13.9251C22.2297 14.0658 22.0649 14.2534 21.9515 14.4719C21.8464 14.6533 21.7891 14.8584 21.785 15.0681C21.7809 15.2777 21.8302 15.4849 21.9281 15.6703C22.3156 16.3719 23.0218 16.1297 23.7562 15.8734C24.1402 15.7032 24.5566 15.6185 24.9765 15.625Z" fill="#231F20"/>
<path fill-rule="evenodd" clip-rule="evenodd" d="M22.9812 13.4845C22.9078 11.7735 26.1718 11.5626 26.5625 12.9923C26.9531 14.422 23.1468 14.7548 22.9859 13.486L22.9812 13.4845Z" fill="black"/>
</svg>
